<svg width="1024" height="1024" viewBox="0 0 1024 1024" fill="none" xmlns="http://www.w3.org/2000/svg">
<path d="M701.6 0C705.5 0 710.9 2.2 713.7 5L763.7 55C764.5 55.7999 765.3 56.4003 766.1 57.2002L933.1 224C933.9 224.8 934.6 225.6 935.4 226.4L985.6 276.4C988.4 279.1 990.6 284.5 990.6 288.4V918.8C990.6 976.7 943.3 1023.9 885.2 1023.9H286C227.9 1023.9 180.6 976.8 180.6 918.8V860.9H263.1V918.8C263.1 931.2 273.6 941.7 286 941.7H885.3C897.7 941.7 908.2 931.2 908.2 918.8V339.3H755.8C697.7 339.3 650.4 292.2 650.4 234.2V82.2002H286C273.6 82.2002 263.1 92.6998 263.1 105.1V570.6H180.6V105.1C180.6 47.1998 227.9 0 286 0H701.6ZM682.2 599C697.3 599 709.7 611.4 709.7 626.5V807C709.7 822.1 697.3 834.4 682.2 834.4H70.5C55.4 834.4 43 822.1 43 807V626.4C43 611.3 55.4 599 70.5 599H682.2ZM238.101 637C215.401 637 197.1 644.4 183.3 659.3C169.4 674.2 162.5 693.5 162.5 717.2C162.5 739.6 169.3 757.901 182.8 772.101C196.3 786.301 213.901 793.4 235.601 793.4C257.8 793.4 275.8 786.1 289.5 771.4C303.2 756.7 310.101 737.6 310.101 714.101C310.101 691.501 303.5 673.001 290.3 658.601C277.1 644.201 259.7 637 238.101 637ZM332 792.2H384C407.8 792.2 427.2 785.2 442.2 771C457.3 756.9 464.8 738.1 464.8 714.7C464.8 665.6 437.9 641 384.2 641H332V792.2ZM487 792.2H519.199V739.5H535.8C552.8 739.9 567 735.4 578.399 726.101C589.699 716.801 595.4 704.4 595.5 688.9C595.5 657 576.7 641 539.1 641H487V792.2ZM381.7 667.4C396.2 667.4 408.1 671.6 417.2 680C426.4 688.5 430.9 700.2 430.9 715.2C430.9 730.7 426.5 743.1 417.8 752.2C409.1 761.3 397.1 765.9 381.8 765.9H364.2V667.4H381.7ZM237.101 664.9C249.6 664.9 259.2 669.501 265.9 678.601C272.8 687.801 276.2 700.2 276.2 716C276.2 731.1 272.7 743.101 265.7 752.101C258.7 761 248.8 765.5 236.2 765.5C223.8 765.5 214.1 760.8 207 751.5C199.9 742.1 196.4 730.1 196.4 715.4C196.4 700.5 200 688.4 207.3 679C214.5 669.6 224.501 664.9 237.101 664.9ZM533.399 666C552.199 666 561.5 674.001 561.5 690.101C561.5 706.6 551.999 714.8 533.1 714.8H519.1V666H533.399ZM638.5 319.5C638.5 409.9 564.7 483.3 473.601 483.3V319.5H638.5ZM462.8 142C553.8 142 627.599 215.3 627.6 305.8H462.8V469.601C371.8 469.6 298 396.3 298 305.8C298 215.4 371.8 142 462.8 142ZM737.9 127C735.1 124.3 732.901 125.2 732.9 129.1V234.2C732.901 246.6 743.4 257.1 755.8 257H861.1C865 257 866 254.8 863.2 252L737.9 127Z" fill="black"/>
</svg>
