<svg width="1024" height="1024" viewBox="0 0 1024 1024" fill="none" xmlns="http://www.w3.org/2000/svg">
<path d="M701.6 0C705.5 0 710.9 2.2 713.7 5L763.7 55C764.5 55.7999 765.3 56.4003 766.1 57.2002L933.1 224C933.9 224.8 934.6 225.6 935.4 226.4L985.6 276.4C988.4 279.1 990.6 284.5 990.6 288.4V918.8C990.6 976.7 943.3 1023.9 885.2 1023.9H286C227.9 1023.9 180.6 976.8 180.6 918.8V860.9H263.1V918.8C263.1 931.2 273.6 941.7 286 941.7H885.3C897.7 941.7 908.2 931.2 908.2 918.8V339.3H755.8C697.7 339.3 650.4 292.2 650.4 234.2V82.2002H286C273.6 82.2002 263.1 92.6998 263.1 105.1V570.6H180.6V105.1C180.6 47.1998 227.9 0 286 0H701.6ZM682.2 599C697.3 599 709.7 611.4 709.7 626.5V807C709.7 822.1 697.3 834.4 682.2 834.4H70.5C55.4 834.4 43 822.1 43 807V626.4C43 611.3 55.4 599 70.5 599H682.2ZM238.101 637C215.401 637 197.1 644.4 183.3 659.3C169.4 674.2 162.5 693.5 162.5 717.2C162.5 739.6 169.3 757.901 182.8 772.101C196.3 786.301 213.901 793.4 235.601 793.4C257.8 793.4 275.8 786.1 289.5 771.4C303.2 756.7 310.101 737.6 310.101 714.101C310.101 691.501 303.5 673.001 290.3 658.601C277.1 644.201 259.7 637 238.101 637ZM540.6 636C523 636 508.8 639.9 498.1 647.7C487.4 655.5 482 666.4 482 680.5C482 699.7 493.8 714.3 517.399 724.3C532.399 730.5 541.699 735.5 545.199 739.1C548.699 742.7 550.5 746.6 550.5 750.7C550.5 755.5 548.299 759.399 543.899 762.399C539.499 765.399 532.9 766.899 524.1 766.899C508.6 766.899 494.8 761.9 482.6 751.8V784.1C493.7 789.7 507.899 792.5 525.199 792.5C544.099 792.5 558.7 788.7 569 781.1C579.3 773.5 584.4 762.4 584.5 747.8C584.5 737.9 581.699 729.4 576.1 722.2C570.5 715 560.1 708.2 545.1 701.8C532.3 696.2 524.3 691.8 521 688.5C517.7 685.2 516.1 681.6 516.1 677.7C516.1 672.8 518.399 668.9 523.199 666C527.899 663.1 534.299 661.7 542.199 661.7C555.799 661.7 567.6 665.2 577.8 672.1V641.8C567.8 637.9 555.4 636 540.6 636ZM332 792.2H384C407.8 792.2 427.2 785.2 442.2 771C457.3 756.9 464.8 738.1 464.8 714.7C464.8 665.6 437.9 641 384.2 641H332V792.2ZM381.7 667.4C396.2 667.4 408.1 671.6 417.2 680C426.4 688.5 430.9 700.2 430.9 715.2C430.9 730.7 426.5 743.1 417.8 752.2C409.1 761.3 397.1 765.9 381.8 765.9H364.2V667.4H381.7ZM237.101 664.9C249.6 664.9 259.2 669.501 265.9 678.601C272.8 687.801 276.2 700.2 276.2 716C276.2 731.1 272.7 743.101 265.7 752.101C258.7 761 248.8 765.5 236.2 765.5C223.8 765.5 214.1 760.8 207 751.5C199.9 742.1 196.4 730.1 196.4 715.4C196.4 700.5 200 688.4 207.3 679C214.5 669.6 224.501 664.9 237.101 664.9ZM354.899 518H315V266H354.899V518ZM418.5 518H378.6V420H418.5V518ZM482.2 518H442.3V141H482.2V518ZM545.8 518H505.899V305H545.8V518ZM610.7 518H570.8V214H610.7V518ZM737.9 127C735.1 124.3 732.901 125.2 732.9 129.1V234.2C732.901 246.6 743.4 257.1 755.8 257H861.1C865 257 866 254.8 863.2 252L737.9 127Z" fill="black"/>
</svg>
